# xmcd
#
# Track frame offsets:
#	150
#	18150
#	36035
#	48186
#	66035
#	81885
#	102374
#	117917
#	134089
#	150797
#	169756
#	186982
#	205271
#	226478
#	240761
#
# Disc length: 3423 seconds
#
# Revision: 0
# Processed by: cddbd v1.5.2PL0 Copyright (c) Steve Scherf et al.
# Submitted via: audiograbber 1.83.01
#
DISCID=b80d5d0f
DTITLE=Various Artist - Rewind The 80s Album CD2
DYEAR=1900
DGENRE=Pop
TTITLE0=The Human League - Don't You Want Me
TTITLE1=Frankie Goes To Hollywood - Relax
TTITLE2=Soft Cell - Tainted Love
TTITLE3=Bronski Beat - Smalltown Boy
TTITLE4=ABC - The Look Of Love (Part 1)
TTITLE5=Nik Kershaw - Wouldn't It Be Good (Album Version)
TTITLE6=Heaven 17 - Temptation (Edit)
TTITLE7=The Thompson Twins - Love On Your Side
TTITLE8=Go West - We Close Our Eyes
TTITLE9=Paul Young - Wherever I Lay My Hat (That's My Home)
TTITLE10=OMD - Joan Of Arc (2003 Digital Remaster)
TTITLE11=The Blow Monkeys - It Doesn't Have to Be This Way
TTITLE12=China Crisis - Wishful Thinking
TTITLE13=The Beat - Mirror in the Bathroom
TTITLE14=Toyah - Thunder in the Mountains
EXTD=(p)2014 Inspired Records
EXTT0=
EXTT1=
EXTT2=
EXTT3=
EXTT4=
EXTT5=
EXTT6=
EXTT7=
EXTT8=
EXTT9=
EXTT10=
EXTT11=
EXTT12=
EXTT13=
EXTT14=
PLAYORDER=
